<?xml version="1.0" encoding="UTF-8"?>
<svg id="Layer_1" data-name="Layer 1" xmlns="http://www.w3.org/2000/svg" viewBox="0 0 3411.26 694.68">
  <defs>
    <style>
      .cls-1 {
        fill: none;
      }

      .cls-2 {
        fill: #e7404a;
      }
    </style>
  </defs>
  <g>
    <rect class="cls-2" x="1208.21" y="389.17" width="75.84" height="75.84" transform="translate(647.09 1600.29) rotate(-81.87)"/>
    <path class="cls-2" d="M1081.96,478.76c-25.1,0-43.22-18.12-43.22-46.71,0-46.01,29.28-94.8,74.59-94.8,25.79,0,41.83,16.03,48.8,46.01l125.48-50.19c-14.64-71.1-73.89-124.08-165.91-124.08-131.75,0-233.53,105.26-233.53,236.31,0,102.47,76.68,162.42,178.46,162.42,87.13,0,142.21-35.55,179.85-89.93l-106.66-71.1c-18.82,21.61-35.55,32.07-57.86,32.07Z"/>
    <path class="cls-2" d="M512.24,324.7c0-71.1-39.04-116.42-108.75-116.42-47.4,0-88.53,25.79-113.63,56.46l51.23-192.99-164.81,30.99-120.15,444.05c52.86-8.93,107.03-13.98,162.22-14.85l33.17-123.61c11.15-41.13,27.88-62.04,59.25-62.04,23,0,33.46,13.25,33.46,33.46,0,7.67-1.39,18.82-4.18,28.58l-33.76,125.78c51.94,3.4,102.87,10.49,152.52,21.05l44.36-166.35c6.27-23,9.06-44.61,9.06-64.13Z"/>
    <path class="cls-2" d="M752.63,354.81c-46.59-16.69-54.94-20.86-54.94-31.29,0-7.65,7.65-12.52,25.04-12.52,37.55,0,93.56,21.61,124.55,45.41l60.43-95.48,15.15-23.95s-12.49,9.89-90.02-12.93l-.34-.1c-.13-.04-.26-.08-.4-.12l-1.18-.36.1.05c-30.21-9.15-65.03-14.75-102.74-14.75-114.05,0-178.03,60.5-178.03,136.3,0,59.81,42.42,87.62,103.61,109.88,47.29,17.39,59.11,23.64,59.11,36.16,0,6.95-6.26,13.21-22.25,13.21-43.12,0-102.23-24.34-136.3-51.46,0,0-19.96-17.73-27.94-36.53,0,0-8.88,34.69-35.47,126.14l-1.47,4.38c.05.04.11.08.17.11-1.36,4.67-2.75,9.43-4.2,14.39,0,0,10.79,1.73,88.73,27.63h0c33.63,10.89,71.89,17.57,113.72,17.57,127.96,0,172.47-73.71,172.47-137,0-66.76-47.29-93.19-107.79-114.74Z"/>
  </g>
  <g>
    <g>
      <g>
        <path class="cls-2" d="M1583.23,206.74v128.96h-35.59v-128.96h-49.23v-32.82h134.04v32.82h-49.23Z"/>
        <path class="cls-2" d="M1734.23,335.69v-68.93c0-8.3-1.85-14.56-5.55-18.79-3.7-4.22-8.94-6.34-15.71-6.34s-12.13,2.12-16.06,6.34c-3.93,4.23-5.89,10.49-5.89,18.79v68.93h-35.13v-168.71h35.13v62.54c2-2.64,4.19-5.16,6.58-7.57,2.39-2.4,5.05-4.53,7.98-6.4,2.93-1.86,6.16-3.34,9.71-4.42,3.55-1.09,7.55-1.63,12.02-1.63,13.4,0,23.77,4.09,31.08,12.25,7.32,8.17,10.98,19.41,10.98,33.74v80.19h-35.13Z"/>
        <path class="cls-2" d="M1913.89,278.84c-.08,1.24-.2,2.7-.35,4.39h-86.2c1.69,8.01,5.2,14.06,10.52,18.14,5.32,4.08,11.9,6.12,19.76,6.12,5.85,0,11.09-1,15.71-3,4.62-2,9.4-5.24,14.33-9.71l20.1,17.8c-5.86,7.24-12.94,12.91-21.26,16.98-8.32,4.08-18.11,6.12-29.35,6.12-9.24,0-17.83-1.54-25.77-4.62-7.94-3.08-14.79-7.47-20.57-13.17-5.78-5.7-10.28-12.44-13.52-20.22-3.24-7.78-4.86-16.44-4.86-26v-.46c0-8.78,1.5-17.1,4.51-24.96,3-7.86,7.2-14.71,12.59-20.57,5.39-5.85,11.82-10.48,19.3-13.87,7.47-3.39,15.75-5.08,24.84-5.08,10.32,0,19.26,1.85,26.81,5.55,7.55,3.7,13.82,8.67,18.83,14.91,5.01,6.24,8.7,13.4,11.09,21.49,2.39,8.09,3.59,16.52,3.59,25.3v.46c0,1.7-.04,3.16-.12,4.39ZM1871.48,242.21c-4.47-4.85-10.4-7.28-17.8-7.28s-13.37,2.39-17.91,7.16c-4.55,4.78-7.51,11.17-8.9,19.18h52.92c-1.08-7.86-3.85-14.21-8.32-19.07Z"/>
        <path class="cls-2" d="M2006.34,173.93h44.83v60.54h57.54v-60.54h44.83v161.76h-44.83v-61.47h-57.54v61.47h-44.83v-161.76Z"/>
        <path class="cls-2" d="M2176.72,270.76v-.46c0-36.51,26.11-65.4,63.09-65.4,43.21,0,63.09,31.66,63.09,68.4,0,2.77,0,6.01-.23,9.01h-83.65c3.47,13.64,13.41,20.57,27.04,20.57,10.4,0,18.72-3.93,27.73-12.71l24.26,20.1c-12.01,15.25-29.35,25.42-54.31,25.42-39.28,0-67.01-26.11-67.01-64.94ZM2261.76,259.9c-1.62-13.87-9.71-22.65-21.72-22.65s-19.41,9.01-21.72,22.65h43.45Z"/>
        <path class="cls-2" d="M2323.45,297.1v-.46c0-25.88,19.64-39.28,48.99-39.28,11.56,0,22.88,2.31,30.04,4.85v-2.08c0-12.94-8.09-20.34-24.96-20.34-13.17,0-23.34,2.54-34.43,6.93l-9.01-30.96c14.1-5.78,29.12-9.71,50.61-9.71s37.67,5.32,47.6,15.25c9.47,9.25,13.4,22.18,13.4,39.75v71.87h-43.44v-12.94c-8.55,9.47-20.34,15.71-36.74,15.71-23.81,0-42.06-13.64-42.06-38.59ZM2402.94,287.63v-5.78c-4.39-1.85-10.63-3.24-17.1-3.24-12.71,0-20.1,6.24-20.1,15.48v.46c0,8.55,6.47,13.63,15.48,13.63,12.71,0,21.72-8.09,21.72-20.57Z"/>
        <path class="cls-2" d="M2469.09,167h43.91v168.69h-43.91v-168.69Z"/>
        <path class="cls-2" d="M2551.21,294.33v-50.84h-14.79v-35.35h14.79v-31.66h43.91v31.66h29.12v35.35h-29.12v42.29c0,8.78,3.93,12.48,12.02,12.48,5.78,0,11.32-1.62,16.64-4.16v34.43c-7.86,4.39-18.26,7.16-30.5,7.16-26.35,0-42.06-11.55-42.06-41.36Z"/>
        <path class="cls-2" d="M2647.61,167h43.91v60.78c8.09-10.4,19.64-19.87,37.43-19.87,26.58,0,42.52,17.56,42.52,45.99v81.81h-43.91v-67.71c0-13.63-7.17-21.03-17.57-21.03s-18.49,7.39-18.49,21.03v67.71h-43.91v-168.69Z"/>
        <path class="cls-2" d="M2792.88,359.7l13.63-30.73c6.93,4.16,14.33,6.7,19.18,6.7,4.39,0,7.39-1.16,10.17-5.08l-48.99-122.71h45.98l24.96,75.33,23.57-75.33h45.06l-45.76,122.01c-10.86,29.12-22.65,40.67-47.61,40.67-15.48,0-28.65-4.39-40.21-10.86Z"/>
      </g>
      <g>
        <path class="cls-2" d="M1498.42,515.94l24.96-29.81c15.94,12.71,33.74,19.41,52.46,19.41,12.01,0,18.49-4.16,18.49-11.09v-.46c0-6.7-5.32-10.4-27.27-15.48-34.43-7.86-61.01-17.56-61.01-50.84v-.46c0-30.04,23.8-51.76,62.62-51.76,27.5,0,48.99,7.39,66.56,21.49l-22.42,31.66c-14.79-10.4-30.96-15.94-45.29-15.94-10.86,0-16.18,4.62-16.18,10.4v.46c0,7.39,5.55,10.63,27.96,15.71,37.21,8.09,60.31,20.1,60.31,50.38v.46c0,33.05-26.11,52.69-65.4,52.69-28.65,0-55.92-9.01-75.79-26.81Z"/>
        <path class="cls-2" d="M1662.61,496.76v-81.81h43.91v67.71c0,13.64,7.16,21.03,17.79,21.03s18.26-7.39,18.26-21.03v-67.71h43.91v125.02h-43.91v-17.1c-8.09,10.4-19.64,19.87-37.44,19.87-26.57,0-42.52-17.56-42.52-45.99Z"/>
        <path class="cls-2" d="M1811.87,563.07l14.1-29.12c13.4,7.39,26.81,11.79,43.67,11.79,21.96,0,32.81-10.86,32.81-30.74v-4.85c-8.78,10.17-20.33,18.72-38.59,18.72-30.73,0-55.46-22.18-55.46-58v-.46c0-36.05,25.18-58.23,54.07-58.23,18.72,0,29.81,7.63,39.28,17.56v-14.79h43.91v94.98c0,22.88-5.08,38.82-16.18,49.92-11.32,11.32-28.89,17.56-55,17.56-24.26,0-44.6-5.08-62.62-14.33ZM1902.46,470.86v-.46c0-13.86-10.63-24.03-25.42-24.03s-25.65,10.4-25.65,24.26v.46c0,13.86,10.63,24.03,25.65,24.03s25.42-10.4,25.42-24.26Z"/>
        <path class="cls-2" d="M1968.8,504.15v-.46c0-25.88,19.64-39.28,48.99-39.28,11.56,0,22.88,2.31,30.04,4.85v-2.08c0-12.94-8.09-20.34-24.96-20.34-13.17,0-23.34,2.54-34.43,6.93l-9.01-30.96c14.1-5.78,29.12-9.71,50.6-9.71s37.67,5.32,47.61,15.25c9.47,9.25,13.4,22.18,13.4,39.75v71.87h-43.44v-12.94c-8.55,9.47-20.34,15.71-36.74,15.71-23.8,0-42.06-13.64-42.06-38.59ZM2048.3,494.68v-5.78c-4.39-1.85-10.63-3.24-17.1-3.24-12.71,0-20.1,6.24-20.1,15.48v.46c0,8.55,6.47,13.63,15.48,13.63,12.71,0,21.72-8.09,21.72-20.57Z"/>
        <path class="cls-2" d="M2114.56,417.73h43.91v25.19c7.16-17.1,18.72-28.19,39.52-27.27v46.22h-3.7c-22.88,0-35.82,13.17-35.82,42.06v38.82h-43.91v-125.02Z"/>
        <path class="cls-2" d="M2426.71,525.87c-4.47,3.55-9.36,6.59-14.67,9.13-5.32,2.54-11.13,4.47-17.45,5.78-6.32,1.31-13.4,1.96-21.26,1.96-11.87,0-22.88-2.16-33.05-6.47-10.17-4.31-18.95-10.2-26.35-17.68-7.39-7.47-13.17-16.29-17.33-26.46-4.16-10.17-6.24-21.03-6.24-32.59v-.46c0-11.55,2.08-22.38,6.24-32.47,4.16-10.09,9.94-18.95,17.33-26.58,7.4-7.63,16.25-13.63,26.58-18.03,10.32-4.39,21.72-6.59,34.21-6.59,7.55,0,14.44.62,20.68,1.85,6.24,1.23,11.9,2.93,16.99,5.08,5.08,2.16,9.78,4.78,14.1,7.86,4.31,3.08,8.32,6.47,12.02,10.17l-22.65,26.12c-6.32-5.7-12.75-10.17-19.3-13.4-6.55-3.24-13.91-4.85-22.07-4.85-6.78,0-13.06,1.31-18.84,3.93-5.77,2.62-10.75,6.24-14.91,10.86-4.16,4.62-7.39,9.98-9.71,16.06-2.31,6.09-3.46,12.59-3.46,19.53v.46c0,6.93,1.16,13.48,3.46,19.64,2.31,6.16,5.51,11.56,9.59,16.18,4.08,4.62,9.02,8.28,14.79,10.98,5.77,2.7,12.13,4.04,19.06,4.04,9.24,0,17.06-1.69,23.46-5.08,6.39-3.39,12.74-8.01,19.06-13.87l22.65,22.88c-4.16,4.47-8.48,8.47-12.94,12.02Z"/>
        <path class="cls-2" d="M2591.62,503.34c-3.39,7.78-8.09,14.6-14.1,20.45-6.01,5.86-13.1,10.48-21.26,13.87-8.17,3.39-17.1,5.08-26.81,5.08s-18.41-1.66-26.58-4.97c-8.17-3.31-15.22-7.86-21.15-13.64-5.93-5.78-10.6-12.55-13.98-20.34-3.39-7.78-5.08-16.14-5.08-25.08v-.46c0-8.93,1.69-17.29,5.08-25.07,3.39-7.78,8.09-14.6,14.1-20.45,6-5.85,13.09-10.48,21.26-13.87,8.16-3.39,17.1-5.08,26.81-5.08s18.41,1.66,26.58,4.97c8.16,3.32,15.21,7.86,21.15,13.64,5.93,5.78,10.59,12.56,13.98,20.34,3.38,7.78,5.08,16.14,5.08,25.07v.46c0,8.94-1.7,17.3-5.08,25.08ZM2562.04,478.27c0-4.62-.77-8.97-2.31-13.06-1.54-4.08-3.78-7.7-6.7-10.86-2.93-3.16-6.4-5.66-10.4-7.51-4.01-1.85-8.4-2.77-13.17-2.77-5.08,0-9.59.89-13.52,2.66-3.93,1.77-7.28,4.2-10.05,7.28-2.77,3.08-4.89,6.67-6.36,10.75-1.46,4.09-2.19,8.44-2.19,13.06v.46c0,4.62.77,8.98,2.31,13.06,1.54,4.09,3.78,7.71,6.7,10.86,2.93,3.16,6.36,5.66,10.28,7.51,3.93,1.85,8.36,2.77,13.29,2.77s9.59-.88,13.52-2.66c3.93-1.77,7.28-4.19,10.05-7.28,2.78-3.08,4.89-6.66,6.36-10.75,1.46-4.08,2.2-8.44,2.2-13.06v-.46Z"/>
        <path class="cls-2" d="M2774.01,542.74v-68.93c0-8.3-1.77-14.56-5.32-18.79-3.55-4.22-8.63-6.34-15.25-6.34s-11.83,2.12-15.6,6.34c-3.78,4.23-5.66,10.49-5.66,18.79v68.93h-35.13v-68.93c0-8.3-1.77-14.56-5.32-18.79-3.55-4.22-8.63-6.34-15.26-6.34s-11.82,2.12-15.6,6.34c-3.78,4.23-5.66,10.49-5.66,18.79v68.93h-35.13v-123.87h35.13v17.71c2-2.64,4.2-5.16,6.59-7.57,2.39-2.4,5.04-4.53,7.98-6.4,2.92-1.86,6.2-3.34,9.82-4.42,3.62-1.09,7.66-1.63,12.13-1.63,8.16,0,15.21,1.71,21.15,5.12,5.93,3.42,10.52,8.3,13.75,14.66,5.39-6.51,11.4-11.44,18.03-14.78,6.62-3.34,14.17-5.01,22.64-5.01,13.09,0,23.34,3.85,30.74,11.56,7.39,7.71,11.09,19.03,11.09,33.97v80.66h-35.13Z"/>
        <path class="cls-2" d="M2957.93,504.47c-3.16,7.94-7.32,14.64-12.48,20.1-5.16,5.47-11.13,9.59-17.91,12.37-6.78,2.77-13.86,4.16-21.26,4.16-9.4,0-17.14-1.83-23.22-5.5-6.09-3.67-11.21-7.95-15.37-12.84v53.01h-35.13v-160.85h35.13v17.64c4.31-5.81,9.51-10.58,15.6-14.33,6.08-3.75,13.75-5.62,22.99-5.62,7.24,0,14.25,1.39,21.03,4.16,6.78,2.77,12.79,6.9,18.03,12.36,5.24,5.47,9.43,12.17,12.6,20.11,3.15,7.94,4.74,17.06,4.74,27.38v.46c0,10.32-1.58,19.45-4.74,27.39ZM2927.54,476.62c0-5.12-.81-9.81-2.42-14.08-1.62-4.26-3.82-7.91-6.59-10.93-2.78-3.03-5.97-5.35-9.59-6.98-3.63-1.63-7.51-2.44-11.67-2.44s-8.05.82-11.67,2.44c-3.62,1.63-6.78,3.95-9.47,6.98-2.7,3.03-4.85,6.67-6.47,10.93-1.62,4.27-2.42,8.96-2.42,14.08v.46c0,5.12.81,9.81,2.42,14.08,1.62,4.26,3.77,7.91,6.47,10.93,2.7,3.03,5.85,5.35,9.47,6.98,3.62,1.63,7.51,2.44,11.67,2.44s8.05-.81,11.67-2.44c3.62-1.63,6.81-3.95,9.59-6.98,2.77-3.02,4.97-6.63,6.59-10.82,1.61-4.19,2.42-8.92,2.42-14.2v-.46Z"/>
        <path class="cls-2" d="M3065.69,540.43v-13.4c-4.31,4.78-9.47,8.59-15.48,11.44-6.01,2.85-13.33,4.27-21.96,4.27-5.85,0-11.36-.81-16.52-2.43-5.16-1.62-9.67-4.04-13.52-7.28-3.85-3.24-6.89-7.2-9.13-11.9-2.24-4.7-3.35-10.13-3.35-16.29v-.46c0-6.78,1.23-12.63,3.7-17.57,2.46-4.93,5.89-9.01,10.28-12.25,4.39-3.24,9.63-5.66,15.71-7.28,6.08-1.62,12.82-2.43,20.22-2.43,6.32,0,11.82.46,16.52,1.39,4.7.92,9.28,2.16,13.75,3.7v-2.08c0-7.39-2.23-13.02-6.7-16.87-4.47-3.85-11.09-5.78-19.88-5.78-6.78,0-12.75.58-17.91,1.73-5.16,1.16-10.6,2.81-16.29,4.97l-8.78-26.81c6.78-2.92,13.87-5.32,21.26-7.16,7.4-1.85,16.33-2.77,26.81-2.77,19.26,0,33.28,4.7,42.06,14.1,8.78,9.4,13.17,22.5,13.17,39.29v71.87h-33.97ZM3066.38,490.51c-3.08-1.39-6.51-2.5-10.28-3.35-3.78-.85-7.82-1.27-12.13-1.27-7.55,0-13.49,1.47-17.8,4.39-4.31,2.93-6.47,7.16-6.47,12.71v.46c0,4.78,1.77,8.48,5.32,11.09,3.54,2.62,8.17,3.93,13.86,3.93,8.32,0,14.99-2,19.99-6.01,5-4,7.51-9.24,7.51-15.71v-6.24Z"/>
        <path class="cls-2" d="M3201.59,542.74v-68.93c0-8.3-1.85-14.56-5.55-18.79-3.7-4.22-8.94-6.34-15.71-6.34s-12.13,2.12-16.06,6.34c-3.93,4.23-5.89,10.49-5.89,18.79v68.93h-35.13v-123.87h35.13v17.71c2-2.64,4.2-5.16,6.59-7.57,2.39-2.4,5.04-4.53,7.98-6.4,2.92-1.86,6.16-3.34,9.71-4.42,3.54-1.09,7.55-1.63,12.02-1.63,13.4,0,23.76,4.09,31.08,12.25,7.32,8.17,10.98,19.41,10.98,33.74v80.19h-35.13Z"/>
        <path class="cls-2" d="M3329.76,541.81c-2.31,6.32-4.78,11.67-7.4,16.06-2.62,4.39-5.51,7.97-8.66,10.75-3.16,2.77-6.74,4.77-10.75,6.01-4.01,1.23-8.63,1.85-13.86,1.85-6.47,0-12.17-.77-17.1-2.31-4.93-1.54-9.63-3.62-14.1-6.24l11.79-25.42c2.31,1.39,4.81,2.54,7.51,3.46,2.69.93,5.2,1.39,7.51,1.39,3.08,0,5.51-.58,7.28-1.73,1.77-1.15,3.42-3.27,4.97-6.35l-48.53-124.34h37.21l28.2,84.35,27.04-84.35h36.51l-47.61,126.88Z"/>
      </g>
    </g>
    <g>
      <path class="cls-1" d="M2994.17,160.98c0-3.06-.96-5.39-2.88-6.96-1.92-1.58-4.76-2.37-8.51-2.37h-12.69v18.8h12.69c3.75,0,6.59-.79,8.51-2.37,1.92-1.58,2.88-3.95,2.88-7.1Z"/>
      <path class="cls-1" d="M2981.44,134.75c-20.69,0-37.52,16.83-37.52,37.53s16.83,37.53,37.52,37.53,37.53-16.83,37.53-37.53-16.83-37.53-37.53-37.53ZM3000.41,195.25c-.41.39-1.01.58-1.78.58s-1.42-.18-1.92-.55c-.5-.37-.94-.89-1.3-1.58l-7.48-13.86c-1.05-1.97-2.26-3.28-3.63-3.94-1.37-.66-3.18-.99-5.42-.99h-8.78v17.97c0,.91-.23,1.64-.69,2.16-.46.53-1.17.79-2.13.79s-1.61-.26-2.09-.79c-.48-.52-.72-1.24-.72-2.16v-43.01c0-.96.25-1.68.76-2.16.5-.48,1.21-.72,2.13-.72h16.26c5.17,0,9.15,1.21,11.94,3.64,2.79,2.43,4.19,5.88,4.19,10.36,0,2.84-.63,5.29-1.89,7.37-1.26,2.08-3.1,3.66-5.52,4.73-1.18.53-2.49.91-3.9,1.18.68.23,1.33.51,1.91.91,1.33.92,2.54,2.38,3.64,4.39l6.59,12.28c.37.64.54,1.27.51,1.89-.02.62-.24,1.12-.65,1.51Z"/>
      <path class="cls-2" d="M2993.96,179.57c-1.1-2.01-2.31-3.47-3.64-4.39-.59-.4-1.24-.68-1.91-.91,1.41-.27,2.72-.65,3.9-1.18,2.42-1.07,4.26-2.65,5.52-4.73,1.26-2.08,1.89-4.54,1.89-7.37,0-4.48-1.4-7.93-4.19-10.36-2.79-2.42-6.77-3.64-11.94-3.64h-16.26c-.92,0-1.62.24-2.13.72-.5.48-.76,1.2-.76,2.16v43.01c0,.91.24,1.64.72,2.16.48.53,1.18.79,2.09.79s1.67-.26,2.13-.79c.46-.52.69-1.24.69-2.16v-17.97h8.78c2.24,0,4.05.33,5.42.99,1.37.66,2.58,1.98,3.63,3.94l7.48,13.86c.37.69.8,1.21,1.3,1.58.5.37,1.14.55,1.92.55s1.37-.2,1.78-.58c.41-.39.63-.89.65-1.51.02-.62-.15-1.24-.51-1.89l-6.59-12.28ZM2970.09,170.45v-18.8h12.69c3.75,0,6.59.79,8.51,2.37,1.92,1.58,2.88,3.9,2.88,6.96s-.96,5.52-2.88,7.1c-1.92,1.58-4.76,2.37-8.51,2.37h-12.69Z"/>
      <path class="cls-2" d="M2981.44,131.31c-22.59,0-40.97,18.38-40.97,40.97s18.38,40.97,40.97,40.97,40.97-18.38,40.97-40.97-18.38-40.97-40.97-40.97ZM2981.44,209.81c-20.69,0-37.52-16.83-37.52-37.53s16.83-37.53,37.52-37.53,37.53,16.83,37.53,37.53-16.83,37.53-37.53,37.53Z"/>
    </g>
  </g>
  <rect class="cls-2" x="1387.8" y="162.31" width="13.51" height="427.91"/>
</svg>