<svg width="600" height="400" viewBox="0 0 600 400" fill="none" xmlns="http://www.w3.org/2000/svg">
  <!-- Background Gradient -->
  <defs>
    <linearGradient id="routine-bg" x1="0%" y1="0%" x2="100%" y2="100%">
      <stop offset="0%" style="stop-color:#fef2f2;stop-opacity:1" />
      <stop offset="100%" style="stop-color:#fecaca;stop-opacity:1" />
    </linearGradient>
    <radialGradient id="routine-accent" cx="70%" cy="30%" r="50%">
      <stop offset="0%" style="stop-color:#ef4444;stop-opacity:0.1" />
      <stop offset="100%" style="stop-color:#ef4444;stop-opacity:0" />
    </radialGradient>
  </defs>
  
  <!-- Main Background -->
  <rect width="600" height="400" fill="url(#routine-bg)"/>
  <rect width="600" height="400" fill="url(#routine-accent)"/>
  
  <!-- Decorative Elements -->
  <circle cx="500" cy="100" r="32" fill="#ef4444" opacity="0.1"/>
  <circle cx="470" cy="140" r="20" fill="#ef4444" opacity="0.15"/>
  <circle cx="530" cy="160" r="12" fill="#ef4444" opacity="0.2"/>
  
  <!-- Home Icon -->
  <g transform="translate(420, 180)">
    <path d="M15 5 L25 15 L25 30 L20 30 L20 20 L10 20 L10 30 L5 30 L5 15 Z" fill="#ef4444" opacity="0.6"/>
    <path d="M15 5 L5 15 L25 15 Z" fill="#dc2626" opacity="0.7"/>
    <rect x="12" y="22" width="6" height="8" fill="#ffffff" opacity="0.8"/>
  </g>
  
  <!-- Travel Suitcase -->
  <g transform="translate(480, 200)">
    <rect x="0" y="5" width="25" height="18" rx="2" fill="#ef4444" opacity="0.6"/>
    <rect x="8" y="0" width="9" height="5" rx="1" fill="#ef4444" opacity="0.7"/>
    <circle cx="5" cy="25" r="2" fill="#ffffff" opacity="0.8"/>
    <circle cx="20" cy="25" r="2" fill="#ffffff" opacity="0.8"/>
    <rect x="10" y="12" width="5" height="1" fill="#ffffff" opacity="0.6"/>
  </g>
  
  <!-- Clock -->
  <g transform="translate(450, 280)">
    <circle cx="0" cy="0" r="15" fill="#ef4444" opacity="0.5"/>
    <circle cx="0" cy="0" r="12" fill="#ffffff" opacity="0.8"/>
    <line x1="0" y1="0" x2="0" y2="-8" stroke="#ef4444" stroke-width="2"/>
    <line x1="0" y1="0" x2="6" y2="0" stroke="#ef4444" stroke-width="1.5"/>
    <circle cx="0" cy="0" r="1.5" fill="#ef4444"/>
  </g>
  
  <!-- Convenience Badge -->
  <g transform="translate(420, 120)">
    <rect x="0" y="0" width="60" height="20" rx="10" fill="#ef4444" opacity="0.7"/>
    <text x="30" y="14" text-anchor="middle" font-family="Arial, sans-serif" font-size="9" font-weight="600" fill="#ffffff">CONVENIENT</text>
  </g>
  
  <!-- Path Lines -->
  <path d="M440 200 Q460 190 480 210" stroke="#ef4444" stroke-width="2" opacity="0.3" fill="none"/>
  <path d="M460 220 Q470 240 460 260" stroke="#ef4444" stroke-width="2" opacity="0.3" fill="none"/>
  
  <!-- Main Content -->
  <text x="50" y="160" font-family="Arial, sans-serif" font-size="28" font-weight="700" fill="#1f2937">Your routine,</text>
  <text x="50" y="200" font-family="Arial, sans-serif" font-size="28" font-weight="700" fill="#ef4444">simplified</text>
  <text x="50" y="240" font-family="Arial, sans-serif" font-size="16" font-weight="400" fill="#4b5563">Home or travel—always ready.</text>
  
  <!-- Top Accent -->
  <rect x="0" y="0" width="600" height="20" fill="#ef4444" opacity="0.1"/>
</svg>